<?xml version="1.0" encoding="utf-8"?>
<!-- Generator: Adobe Illustrator 25.2.1, SVG Export Plug-In . SVG Version: 6.00 Build 0)  -->
<svg version="1.1" id="Layer_1" xmlns="http://www.w3.org/2000/svg" xmlns:xlink="http://www.w3.org/1999/xlink" x="0px" y="0px"
	 viewBox="0 0 1920 1080" style="enable-background:new 0 0 1920 1080;" xml:space="preserve">
<g>
	<g>
		<g>
			<path d="M624.02,627.46h-60.9V415.77h60.9c14.98,0,28.87,2.77,41.69,8.31c12.81,5.54,23.88,13.41,33.22,23.61
				c8.9,9.77,15.74,20.96,20.52,33.54c4.77,12.59,7.17,25.95,7.17,40.06c0,14.12-2.39,27.47-7.17,40.06
				c-4.78,12.59-11.62,23.89-20.52,33.87c-9.34,10.42-20.41,18.4-33.22,23.94C652.9,624.69,639,627.46,624.02,627.46z
				 M577.78,612.81h46.25c26.27,0,47.66-9.23,64.16-27.68c7.6-8.25,13.4-17.86,17.42-28.82c4.01-10.96,6.02-22.64,6.02-35.01
				c0-12.16-2.01-23.72-6.02-34.69c-4.02-10.96-9.83-20.57-17.42-28.82c-16.72-18.02-38.1-27.03-64.16-27.03h-46.25V612.81z"/>
			<path d="M779.69,627.46V415.77h14.66v211.69H779.69z"/>
			<path d="M1064.66,627.46v-167.4l-93.8,133.86l-95.1-134.18v167.73h-14.66v-214.3l109.75,155.02l108.45-155.02v214.3H1064.66z"/>
			<path d="M1146.07,627.46V415.77h14.66v211.69H1146.07z"/>
			<path d="M1392.94,415.77v14.98h-83.7v196.71h-14.98V430.75h-84.03v-14.98H1392.94z"/>
			<path d="M1496.18,413.16l94.77,214.3h-16.29l-78.81-178.15l-82.07,178.15h-16.28L1496.18,413.16z"/>
			<path d="M1761.93,627.46L1674,520.64h26.05c16.07,0,29.09-2.06,39.08-6.19c7.38-3.47,13.79-8.74,19.21-15.8
				c5.43-7.05,8.14-14.82,8.14-23.29c0-7.6-2.28-14.82-6.84-21.66c-4.56-6.84-11.07-12.43-19.54-16.77
				c-8.47-4.34-18.24-6.51-29.31-6.51h-59.27v197.04h-14.66V415.77h73.93c9.98,0,19.32,1.58,28.01,4.72
				c8.68,3.15,16.28,7.65,22.8,13.52c6.29,5.65,11.12,12.05,14.49,19.22c3.36,7.16,5.05,14.55,5.05,22.15
				c0,11.94-3.58,22.64-10.75,32.08c-7.17,9.44-15.63,16.23-25.4,20.35c-6.73,3.04-13.3,4.94-19.7,5.7
				c-6.41,0.76-13.19,1.14-20.36,1.14l76.53,92.82H1761.93z"/>
		</g>
		<g>
			<path d="M926.43,712.87h-58.01v45.62h-6.95v-52.57v-45.62h6.95v45.62h58.01v-45.62h6.8v48.95v49.25h-6.8V712.87z"/>
			<path d="M1036.1,759.55c-8.97,0-17.27-2.24-24.93-6.72c-7.65-4.48-13.7-10.58-18.13-18.28c-4.43-7.7-6.65-16.09-6.65-25.15
				c0-9.06,2.21-17.45,6.65-25.15c4.43-7.71,10.47-13.8,18.13-18.28c7.65-4.48,15.96-6.72,24.93-6.72c8.96,0,17.27,2.24,24.93,6.72
				c7.65,4.48,13.7,10.57,18.13,18.28c4.43,7.7,6.65,16.09,6.65,25.15c0,9.06-2.22,17.45-6.65,25.15
				c-4.43,7.7-10.48,13.8-18.13,18.28C1053.38,757.31,1045.07,759.55,1036.1,759.55z M1036.1,666.19c-7.76,0-14.91,1.94-21.45,5.82
				c-6.55,3.88-11.76,9.12-15.64,15.71c-3.88,6.6-5.82,13.82-5.82,21.68c0,7.86,1.94,15.08,5.82,21.68
				c3.88,6.6,9.09,11.84,15.64,15.71c6.55,3.88,13.7,5.82,21.45,5.82c7.75,0,14.9-1.94,21.45-5.82c6.55-3.88,11.73-9.11,15.56-15.71
				c3.83-6.6,5.74-13.82,5.74-21.68c0-7.86-1.91-15.08-5.74-21.68c-3.83-6.6-9.01-11.83-15.56-15.71
				C1051.01,668.13,1043.86,666.19,1036.1,666.19z"/>
			<path d="M1232.5,758.49v-77.65l-43.51,62.09l-44.11-62.24v77.8h-6.8v-99.41l50.91,71.91l50.31-71.91v99.41H1232.5z"/>
			<path d="M1298.67,758.49v-98.2h63.6v6.95h-56.8v38.67h44.26v6.95h-44.26v38.52h56.8v7.1H1298.67z"/>
			<path d="M1479.28,720.5c2.57,3.78,3.85,7.83,3.85,12.16c0,3.73-0.91,7.28-2.72,10.65c-1.81,3.38-4.43,6.32-7.86,8.84
				c-7.05,5.04-15.26,7.55-24.63,7.55c-4.63,0-9.06-0.66-13.29-1.96c-4.23-1.31-8.01-3.17-11.33-5.59
				c-5.74-4.23-9.22-9.42-10.42-15.56l6.5-3.63c0.3,5.54,3.02,10.07,8.16,13.6c2.62,2.02,5.69,3.55,9.22,4.61
				c3.52,1.06,7.25,1.59,11.18,1.59c8.06,0,14.85-2.06,20.4-6.19c5.34-3.93,8.01-8.56,8.01-13.9c0-3.12-0.98-6.04-2.95-8.76
				c-1.96-2.72-4.71-5.03-8.23-6.95c-3.32-1.71-9.27-3.07-17.83-4.08c-0.71-0.1-3.25-0.5-7.63-1.21c-4.38-0.7-8.13-1.81-11.26-3.32
				c-4.94-2.42-8.81-5.61-11.63-9.59c-2.82-3.98-4.23-8.28-4.23-12.92c0-3.73,0.93-7.23,2.79-10.5c1.86-3.27,4.51-6.17,7.93-8.69
				c3.32-2.42,7.1-4.28,11.33-5.59c4.23-1.31,8.66-1.96,13.29-1.96c9.37,0,17.57,2.52,24.63,7.55c5.84,4.43,9.26,9.57,10.27,15.41
				l-6.5,3.63c-0.1-2.52-0.83-4.93-2.19-7.25c-1.36-2.32-3.3-4.43-5.82-6.34c-2.72-2.01-5.84-3.55-9.37-4.61
				c-3.53-1.06-7.2-1.59-11.03-1.59c-3.83,0-7.53,0.53-11.1,1.59c-3.58,1.06-6.67,2.59-9.29,4.61c-2.62,1.91-4.63,4.06-6.04,6.42
				c-1.41,2.37-2.12,4.81-2.12,7.33c0,3.12,1.16,6.22,3.47,9.29c2.32,3.07,5.19,5.47,8.61,7.18c2.12,1.01,4.46,1.74,7.03,2.19
				c2.57,0.45,5.87,0.93,9.89,1.43c0.7,0.1,2.47,0.35,5.29,0.76c2.82,0.4,5.54,0.96,8.16,1.66c2.62,0.71,4.83,1.56,6.65,2.57
				C1473.11,713.52,1476.71,716.72,1479.28,720.5z"/>
		</g>
	</g>
	<g>
		<path d="M471.03,207.03l-332.5,665.95h572.49l107.01-214.32h-15.67L702.34,858.94H161.22l318.49-637.87h541.12l-81.81,163.85
			h15.69l88.81-177.89H471.03z"/>
	</g>
</g>
</svg>
